<mxfile host="app.diagrams.net" modified="2023-09-16T16:17:38.773Z" agent="Mozilla/5.0 (Windows NT 10.0; Win64; x64) AppleWebKit/537.36 (KHTML, like Gecko) Chrome/116.0.0.0 Safari/537.36 Edg/116.0.1938.81" version="21.7.5" etag="MNe7zEq4B7SBW_NDfnC-" type="github">
  <diagram name="페이지-1" id="Gm22RAWX9IwhBapR5tJx">
    <mxGraphModel>
      <root>
        <mxCell id="0" />
        <mxCell id="1" parent="0" />
      </root>
    </mxGraphModel>
  </diagram>
</mxfile>
